IDResults
version=1
nRows=16
nColumns=18
inDegrees=yes
endheader
time	ground_thorax_rot_x	ground_thorax_rot_y	ground_thorax_rot_z	ground_thorax_tx	ground_thorax_ty	ground_thorax_tz	clav_prot	clav_elev	scapula_abduction	scapula_elevation	scapula_upward_rot	scapula_winging	plane_elv	shoulder_elv	axial_rot	elbow_flexion	pro_sup
      3.08000000	      0.51728761	     -2.02638941	     -6.37475123	     -0.04625212	      0.01681589	      0.03130957	    -20.76939682	    -15.69011620	    -20.18832640	    -12.11640577	     12.57010583	     20.35264363	    -26.00000000	     24.18032337	     39.63294343	     24.34717158	   -168.02329041
      3.10000000	      0.51728761	     -1.98268280	     -6.59357191	     -0.04607742	      0.01616691	      0.03147240	    -20.64472335	    -15.70999886	    -20.17922633	    -12.04181788	     12.24335077	     20.41495371	    -26.00000000	     23.86814081	     39.65802688	     24.35495630	   -168.04322127
      3.12000000	      0.51728761	     -1.75015427	     -6.81265309	     -0.04600478	      0.01570659	      0.03139396	    -20.68430802	    -15.84905187	    -20.42228721	    -12.06747383	     11.92526189	     20.56547291	    -26.00000000	     23.65851413	     41.00102576	     24.25229226	   -168.61427777
      3.14000000	      0.51728761	     -1.71983824	     -6.99798725	     -0.04596074	      0.01513039	      0.03149812	    -20.58314067	    -15.86327347	    -20.41494903	    -12.00452726	     11.65834563	     20.61509460	    -26.00000000	     23.41416809	     41.02188602	     24.25905404	   -168.62981489
      3.16000000	      0.51728761	     -1.63477034	     -7.20927334	     -0.04597701	      0.01476952	      0.03139356	    -20.49991588	    -16.04758470	    -20.44746344	    -12.04830122	     11.30488637	     20.77598808	    -26.00000000	     23.40994011	     41.85342116	     24.22955899	   -168.80686995
      3.18000000	      0.51728761	     -1.62219572	     -7.36320097	     -0.04611110	      0.01426564	      0.03143264	    -20.42354060	    -16.05213646	    -20.44839011	    -11.99344689	     11.09439987	     20.81171384	    -26.00000000	     23.21989038	     41.87007996	     24.23102118	   -168.82021208
      3.20000000	      0.51728761	     -1.61531198	     -7.51527064	     -0.04630559	      0.01379383	      0.03140935	    -20.35720521	    -16.05137409	    -20.45338839	    -11.94081576	     10.90661688	     20.84127270	    -26.00000000	     23.06359130	     41.89116149	     24.22322348	   -168.83309365
      3.22000000	      0.51728761	     -1.51670739	     -7.65298294	     -0.04663064	      0.01355506	      0.03128077	    -20.46330557	    -16.14575661	    -20.68209810	    -11.99172230	     10.80539952	     20.93210117	    -26.00000000	     22.85327580	     43.05324518	     23.96517298	   -169.52423928
      3.24000000	      0.51728761	     -1.54485646	     -7.78598531	     -0.04700394	      0.01317398	      0.03117705	    -20.41728645	    -16.13214731	    -20.70111305	    -11.94036600	     10.65641918	     20.94989053	    -26.00000000	     22.74608269	     43.05813453	     23.95001568	   -169.53552043
      3.26000000	      0.51728761	     -1.63446983	     -7.85443574	     -0.04750330	      0.01300244	      0.03114589	    -20.38774646	    -16.15653441	    -20.73951829	    -11.91816271	     10.50589532	     20.99084896	    -26.00000000	     22.62596087	     43.01408340	     23.70001412	   -169.66605779
      3.28000000	      0.51728761	     -1.69085339	     -7.98798033	     -0.04800583	      0.01267786	      0.03094127	    -20.35997420	    -16.12476093	    -20.77459502	    -11.86232878	     10.38945441	     20.99513136	    -26.00000000	     22.56472764	     43.01227028	     23.66728777	   -169.68063022
      3.30000000	      0.51728761	     -1.87496811	     -7.96572290	     -0.04872203	      0.01266018	      0.03100988	    -20.35780282	    -16.10382611	    -20.84815875	    -11.81761654	     10.27911890	     21.00835001	    -26.00000000	     22.39091095	     42.76555974	     23.23862585	   -169.93619802
      3.32000000	      0.51728761	     -2.07017713	     -8.02829421	     -0.04947459	      0.01244883	      0.03076573	    -20.21983248	    -15.98199820	    -20.62648534	    -11.72187598	     10.29443450	     20.91680579	    -26.00000000	     22.30105991	     41.95308928	     22.92390933	   -172.35371158
      3.34000000	      0.51728761	     -2.26760607	     -8.02696089	     -0.05032969	      0.01231672	      0.03065007	    -20.14063274	    -15.86870950	    -20.56327067	    -11.61319927	     10.22313130	     20.85986156	    -26.00000000	     22.21963462	     41.20071508	     22.57541317	   -173.12355228
      3.36000000	      0.51728761	     -2.44660724	     -8.00442144	     -0.05121066	      0.01233317	      0.03061155	    -20.14857353	    -15.80219024	    -20.64527805	    -11.54336024	     10.14710972	     20.84429426	    -26.00000000	     22.08703369	     40.75010224	     22.04933641	   -173.38030206
      3.38000000	      0.51728761	     -2.73690553	     -8.03527029	     -0.05205626	      0.01217511	      0.03046662	    -19.99144556	    -15.66259512	    -20.41046684	    -11.42671542	     10.13745938	     20.74638023	    -26.00000000	     22.07851318	     39.39961200	     21.70939887	   -175.33074440
